<?xml version="1.0" standalone="no"?>
<!DOCTYPE svg PUBLIC "-//W3C//DTD SVG 20010904//EN"
 "http://www.w3.org/TR/2001/REC-SVG-20010904/DTD/svg10.dtd">
<svg version="1.0" xmlns="http://www.w3.org/2000/svg"
 width="200.000000pt" height="200.000000pt" viewBox="0 0 200.000000 200.000000"
 preserveAspectRatio="xMidYMid meet">
<metadata>
Created by potrace 1.11, written by Peter Selinger 2001-2013
</metadata>
<g transform="translate(0.000000,200.000000) scale(0.100000,-0.100000)"
fill="#000000" stroke="none">
<path d="M217 1893 c-5 -12 -2 -1461 3 -1466 10 -8 186 -163 220 -193 19 -17
61 -54 93 -83 l58 -52 487 3 487 3 48 24 c63 31 131 109 153 174 17 47 18 103
18 617 l1 565 -23 36 c-24 39 -74 69 -116 69 -21 0 -27 7 -36 38 -17 62 -59
99 -120 106 -32 3 -35 7 -42 45 -9 54 -34 87 -81 106 -32 13 -115 15 -592 15
-304 0 -556 -3 -558 -7z m1128 -97 c17 -12 18 -41 17 -617 0 -332 -1 -609 -1
-616 -1 -6 -8 -19 -17 -27 -14 -14 -75 -16 -527 -16 l-512 0 1 643 c1 353 2
643 3 645 0 1 230 2 509 2 411 0 512 -3 527 -14z m162 -165 c20 -19 20 -28 19
-593 -1 -549 -2 -575 -20 -603 -51 -79 -42 -77 -573 -77 -510 -1 -475 -4 -543
51 l-25 21 475 0 c278 0 489 4 509 10 40 11 79 45 92 79 5 13 10 263 10 569 0
301 3 550 5 554 9 13 29 9 51 -11z m174 -147 c19 -23 21 -1084 2 -1147 -14
-47 -41 -81 -93 -117 l-35 -25 -465 -3 -465 -3 -39 40 -38 39 440 1 c356 0
447 3 475 14 48 20 105 73 130 121 21 40 21 49 23 561 1 286 3 523 3 528 2 14
49 7 62 -9z"/>
</g>
</svg>
